<mxfile host="app.diagrams.net" agent="Mozilla/5.0 (Windows NT 10.0; Win64; x64) AppleWebKit/537.36 (KHTML, like Gecko) Chrome/132.0.0.0 Safari/537.36" version="26.0.8">
  <diagram name="Page-1" id="Ho6UKa3iMKPxOVfSTPUR">
    <mxGraphModel dx="875" dy="1571" grid="1" gridSize="10" guides="1" tooltips="1" connect="1" arrows="1" fold="1" page="1" pageScale="1" pageWidth="850" pageHeight="1100" math="0" shadow="0">
      <root>
        <mxCell id="0" />
        <mxCell id="1" parent="0" />
        <mxCell id="iaPaZ1CxlQIq7US97AyM-10" value="" style="whiteSpace=wrap;html=1;aspect=fixed;rounded=1;" vertex="1" parent="1">
          <mxGeometry x="200" y="80" width="120" height="120" as="geometry" />
        </mxCell>
        <mxCell id="iaPaZ1CxlQIq7US97AyM-11" value="" style="whiteSpace=wrap;html=1;aspect=fixed;rounded=1;" vertex="1" parent="1">
          <mxGeometry x="600" y="-40" width="120" height="120" as="geometry" />
        </mxCell>
        <mxCell id="iaPaZ1CxlQIq7US97AyM-12" value="" style="whiteSpace=wrap;html=1;aspect=fixed;rounded=1;" vertex="1" parent="1">
          <mxGeometry x="600" y="200" width="120" height="120" as="geometry" />
        </mxCell>
        <mxCell id="iaPaZ1CxlQIq7US97AyM-13" value="" style="shape=image;verticalLabelPosition=bottom;verticalAlign=top;imageAspect=0;aspect=fixed;image=data:image/svg+xml,PHN2ZyB4bWxucz0iaHR0cDovL3d3dy53My5vcmcvMjAwMC9zdmciIHZpZXdCb3g9IjAgMCAxMjggMTI4Ij48cGF0aCBkPSJNNDAuMSAxMjUuODZjLS4yIDAtLjQtLjEtLjYtLjNsLTYuOS05djkuMkgzMXYtMTEuM2MwLS41LjQtLjguOC0uOC4yIDAgLjUuMS42LjNsNi45IDl2LTkuMmgxLjZ2MTEuM2MwIC41LS40LjgtLjguOG0xMi45LjFjLTEuNiAwLTMuMi0uMy00LjctLjlsLjQtMS4zYzEuNC41IDIuOS44IDQuNC44IDIgMCAzLS43IDMtMS43IDAtLjktLjgtMS40LTMuNi0yLjctMi44LTEuMy0zLjgtMi4xLTMuOC0zLjggMC0yIDEuNi0yLjkgNC41LTIuOSAxLjIgMCAzLjEuMyA0LjIuNmwtLjIgMS4zYy0xLjItLjMtMi43LS41LTMuOS0uNS0yLjEgMC0yLjkuNC0yLjkgMS40IDAgMSAuNiAxLjQgMy41IDIuNyAzLjEgMS40IDMuOSAyLjEgMy45IDMuNi0uMSAyLjQtMi4yIDMuNC00LjggMy40bTEyLjEtMTIuMmgxLjZ2MTJoLTEuNnYtMTJ6bTE1LjQgNi42aC00djQuMWg0YzEuNCAwIDIuMi0uOSAyLjItMi4xIDAtMS4xLS45LTItMi4yLTJtLS44LTUuMmgtMy4ydjMuOGgzLjJjMS4zIDAgMi4yLS44IDIuMi0yIDAtMS4xLS44LTEuOC0yLjItMS44bS44IDEwLjZoLTQuOGMtLjUgMC0uOC0uNC0uOC0uOHYtMTAuNGMwLS40LjQtLjguOC0uOGg0YzIuNSAwIDMuOSAxLjIgMy45IDMuMSAwIDEtLjYgMi0xLjUgMi41IDEuNC40IDIuMyAxLjYgMi4zIDIuOS0uMSAyLTEuNyAzLjUtMy45IDMuNW0xMS42IDBjLS40IDAtLjgtLjQtLjgtLjh2LTExLjJoMS42djEwLjZoNi40djEuNWwtNy4yLS4xem0xOC4zLjJjLTMuMyAwLTUuMy0xLjItNS4zLTMuNyAwLTEuMi43LTIuMyAxLjktMi44LTEtLjctMS42LTEuNi0xLjYtMi42IDAtMi4yIDEuNy0zLjMgNS0zLjMgMS4xIDAgMi42LjEgMy45LjRsLS4yIDEuM2MtMS40LS4yLTIuNi0uMy0zLjgtLjMtMi4xIDAtMy4yLjYtMy4yIDIgMCAxLjEgMSAyIDIuNCAyaDIuOGMuNCAwIC43LjMuNy43IDAgLjQtLjMuNy0uNy43aC0zYy0xLjYgMC0yLjYuOC0yLjYgMiAwIDEuOCAxLjYgMi4zIDMuNiAyLjMgMS4xIDAgMi42LS4xIDMuOC0uNGwuMiAxLjNjLTEgLjItMi42LjQtMy45LjRtLTkxLjQtOS45bDIuOCA3LjEtNC4zLTMuNCAxLjUtMy43em01IDguN2wtNC40LTEwLjdjLS4xLS4zLS40LS41LS43LS41cy0uNi4yLS43LjVsLTQuOCAxMS43SDE1bDEuOS00LjggNS43IDQuNmMuMi4yLjQuMy42LjMuNCAwIC44LS4zLjgtLjguMSAwIC4xLS4yIDAtLjN6TTExNC41IDUyLjRjMCAyNy44LTIyLjYgNTAuNC01MC40IDUwLjQtMjcuOCAwLTUwLjQtMjIuNi01MC40LTUwLjRDMTMuNyAyNC42IDM2LjMgMiA2NC4xIDJjMjcuOCAwIDUwLjQgMjIuNiA1MC40IDUwLjQiIGZpbGw9IiMxQTE5MTgiLz48cGF0aCBkPSJNNjQuOSAzMi44TDc4IDY1IDU4LjMgNDkuNWw2LjYtMTYuN3ptMjMuMiAzOS42bC0yMC00OC4zYy0uNi0xLjQtMS43LTIuMS0zLjEtMi4xLTEuNCAwLTIuNi43LTMuMiAyLjFsLTIyIDUzaDcuNUw1NiA1NS4ybDI2IDIxYzEgLjggMS44IDEuMiAyLjggMS4yIDIgMCAzLjctMS41IDMuNy0zLjYgMC0uMy0uMi0uOC0uNC0xLjR6IiBmaWxsPSIjRkZGIi8+PC9zdmc+;rounded=1;" vertex="1" parent="1">
          <mxGeometry x="190" y="-110" width="100" height="100" as="geometry" />
        </mxCell>
        <mxCell id="iaPaZ1CxlQIq7US97AyM-14" value="" style="shape=image;verticalLabelPosition=bottom;verticalAlign=top;imageAspect=0;aspect=fixed;image=data:image/svg+xml,PHN2ZyB4bWxucz0iaHR0cDovL3d3dy53My5vcmcvMjAwMC9zdmciIHZpZXdCb3g9IjAgMCAxMjggMTI4Ij48cGF0aCBmaWxsPSIjOTMyMjc5IiBkPSJNNTkuMDMzIDY0LjE5MmwtMjcuMzA1IDI2LjY2LTI3LjMwMi0yNi42NiAyNy4zMDItMjYuNjUxem0wIDAiLz48cGF0aCBmaWxsPSIjZWZhNzI0IiBkPSJNNjQuNzIgNTguNzM2TDM3LjgyNCAzMS45MSA2NC43MiA1LjA4NCA5MS42MSAzMS45MXptMCAwIi8+PHBhdGggZmlsbD0iIzljY2QyYSIgZD0iTTkxLjY3NSA5Ni41NjNsLTI3LjMwNyAyNi42NjEtMjcuMy0yNi42NjEgMjcuMzAyLTI2LjY1em0wIDAiLz48cGF0aCBmaWxsPSIjMjYyNTc3IiBkPSJNOTcuMzYyIDkxLjEwOEw3MC40NjYgNjQuMjc3bDI2Ljg5NS0yNi44MjEgMjYuODk1IDI2LjgyMXptMCAwIi8+PHBhdGggZmlsbD0iI2VmYTcyNCIgZD0iTTcwLjA2NiA2OS40ODRoMzYuNDYxdjM2LjQwMUg3MC4wNjZ6bTAgMCIvPjxwYXRoIGZpbGw9IiM5MzIyNzkiIGQ9Ik03MC4yMTYgMjIuNDU0aDM2LjU3N3YzNi4yMzFINzAuMjE2em0wIDAiLz48cGF0aCBmaWxsPSIjMjYyNTc3IiBkPSJNMjEuMSA2OS40ODRoMzguMDg0djM3Ljc1M0gyMS4xem0wIDAiLz48cGF0aCBmaWxsPSIjOWNjZDJhIiBkPSJNMjEuMSAyMC45MjhoMzguMDg0djM3LjUzOEgyMS4xem0wIDAiLz48cGF0aCBmaWxsPSIjZmZmIiBkPSJNNjQuNzIyLjQ2NEw0OC4yNjggMTcuMjI3SDE5LjczOXYyOC4zOTVMMi40ODMgNjIuODM3bDE3LjI1NiAxNy4yMjl2MjguMTQ5aDI3LjY5N2wxNi45MyAxNi45MDEgMTYuOTM1LTE2LjkwMWgyNy45ODNWODAuMTQ4bDE2Ljg5LTE3LjIyOS0xNi42Ni0xNi45NzNWMTcuNDU0SDgxLjM5MnptLS4wMDUgMy45bDEyLjg0MSAxMy4wODloLTguNzF2MzMuNjQ1bC00LjEzIDQuMjA2LTQuMTc1LTQuMjU3di0zMy44MmgtOC40NDV6bS00Mi4yNiAxNS42MzNoMjMuMTA3bC05LjY2MSA5Ljg0MSAyMS45MiAyMi4zNTZ2My40MThoLTQuMTA1TDMxLjcyMyAzMy42NTMgMjIuNDU4IDQyLjl6bTI2LjkzNyAwaDguNDN2MjguMjc3TDM5Ljc0MyAyOS44MzZ6bTIyLjE3Ny4yMTVoOC42OTVsOS40MzEgOS42MjZMNzEuNTY5IDQ4LjMyem0xMi41MjkgMGgyMi42OTd2MjIuOTUxbC05LjQzNi05LjYyLTIxLjg1NiAyMi4yOTFoLTMuOTM0di0zLjU5OWwyMS45NjEtMjIuMzk4em0xMy4yNjEgMTcuMjQ1bDkuNDM2IDkuNjE1djguNzYxSDc5LjMzOXptLTY1LjYzMy4wNjdsMTguMTE3IDE4LjA4OUgyMi40NTdWNDYuNzh6TTE5Ljc0IDQ5LjQ4N3Y4Ljg3OGgzMi44NjRsNC40OSA0LjQ3Mi00LjAzIDQuMDI3SDE5LjczOXY5LjMyOEw2LjM2NCA2Mi44Mzd6bTg5Ljc3Ni4zNThsMTIuODI1IDEzLjA3NC0xMy4wNTcgMTMuMzE1VjY2Ljg2SDc2LjI0NmwtMy44Ni0zLjk0IDQuMjQ5LTQuMzI5aDMyLjg3OHptLTQ4Ljk3NCA1LjExN2w0LjE3NSA0LjI0NyA0LjEzLTQuMjAxdjMuNTgxaDMuOTU1bC00LjI0OSA0LjMyOSAzLjg2IDMuOTRoLTMuN3Y0LjIyMmwtNC4zNDYtNC4zMzktMy44MTkgMy44MTd2LTMuNjk0SDU2Ljk0bDQuMDMtNC4wMjctLjk2Ni0uOTU2LTMuNTI0LTMuNTE2aDQuMDY1em0tMzguMDggMTQuNjU2SDUwLjNMMzEuNzI4IDg4LjE2MWwtOS4yNjUtOS4yNTZ6bTMxLjcxMiAwaDMuNjV2My42NTlMMzUuMTI3IDk1LjkyOGw5LjU0NiA5LjUyN0gyMi40NjJWODIuNzc3bDkuMjYxIDkuMjQ3em0xNy4yNTYgMGgzLjY4OWwyMi4yNDEgMjIuNjguOTYxLS45NjcgOC4yNC04LjQxM3YyMi41NDZIODQuMDZsOS41NTEtOS41MzMtLjk2Ni0uOTcyTDcxLjQzIDczLjc5NXptNy41MTkgMGgyNy42MTN2OS4zOWwtOS4yMDEgOS4zNzl6bS0xNC41NzcuOTk4bDQuMzQgNC4zMzV2MzMuMjY3aDguNzE2bC0xMy4wNTUgMTMuMDI4LTEzLjA1NS0xMy4wMjhoOS4yMzFWNzQuNDMxem0tNi41NDcgNi41MzR2MjguMzA3aC05LjI3bC05LjU0Ni05LjUyN3ptMTMuNjA2LjUxMkw4OS43MzcgOTUuOTNsLTkuNTUxIDkuNTMzSDcxLjQzem0wIDAiLz48L3N2Zz4=;rounded=1;" vertex="1" parent="1">
          <mxGeometry x="600" y="-40" width="60" height="60" as="geometry" />
        </mxCell>
        <mxCell id="iaPaZ1CxlQIq7US97AyM-15" value="" style="shape=image;verticalLabelPosition=bottom;verticalAlign=top;imageAspect=0;aspect=fixed;image=data:image/svg+xml,PHN2ZyB4bWxucz0iaHR0cDovL3d3dy53My5vcmcvMjAwMC9zdmciIHZpZXdCb3g9IjAgMCAxMjggMTI4Ij48cGF0aCBkPSJNNDQuNjYyIDgyLjAyYy0xLjM2NyAwLTIuNTMxLS4yMDgtMy40OS0uNjI0LS45NjItLjQxNy0xLjc0LS45OS0yLjMzNC0xLjcyNWE2LjkgNi45IDAgMDEtMS4yOTItMi41NzIgMTEuOTc1IDExLjk3NSAwIDAxLS40LTMuMTY2di0xMi45NmgyLjAydjEyLjY5NGMwIDEuMTI5LjEzMyAyLjEwNi40MDIgMi45MjkuMjY3LjgyMi42MzggMS41IDEuMTE0IDIuMDM1YTQuMzQ5IDQuMzQ5IDAgMDAxLjcyNCAxLjE5Yy42NzQuMjU3IDEuNDI3LjM4NiAyLjI1OC4zODYuODMyIDAgMS41ODUtLjEzIDIuMjU5LS4zODdhNC4zNTggNC4zNTggMCAwMDEuNzIzLTEuMTg4Yy40NzctLjUzNS44NDgtMS4yMTQgMS4xMTYtMi4wMzYuMjY3LS44MjMuNC0xLjc5OS40LTIuOTNWNjAuOTc0aDIuMDIydjEyLjk2YzAgMS4xMy0uMTMzIDIuMTg2LS40MDIgMy4xNjYtLjI2Ny45ODEtLjY5OCAxLjgzOS0xLjI5MiAyLjU3Mi0uNTk0LjczNC0xLjM3MSAxLjMwOS0yLjMzMiAxLjcyNS0uOTYxLjQxNy0yLjEyNS42MjQtMy40OS42MjR6TTU4LjU1IDY3LjEyOGMuMzM4LS4yNTguODc2LS41MyAxLjYyLS44MTguNzQ0LS4yODcgMS42Mi0uNDMgMi42My0uNDMgMS4xMDkgMCAyLjA5NS4xOTcgMi45NTcuNTkzYTYuMTQgNi4xNCAwIDAxMi4xODMgMS42NjZjLjU5NC43MTMgMS4wNDUgMS41NiAxLjM1MiAyLjU0LjMwNi45ODEuNDYxIDIuMDU2LjQ2MSAzLjIyNiAwIDEuMjQ4LS4xODMgMi4zNjctLjU1IDMuMzU4LS4zNjcuOTkxLS44ODEgMS44MzQtMS41NDUgMi41MjdhNi42NDQgNi42NDQgMCAwMS0yLjM3OCAxLjU5Yy0uOTIxLjM2Ni0xLjk0Ni41NS0zLjA3NS41NS0xLjM2OCAwLTIuNDk3LS4wOS0zLjM4OC0uMjY4LS44OS0uMTc3LTEuNjI0LS4zNjctMi4xOTgtLjU2NVY1OC44NmwxLjkzLS4zNTZ2OC42MmwuMDAyLjAwM3ptMCAxMi42MzRjLjI5OC4wOTkuNzM5LjE5MyAxLjMyMy4yODIuNTg0LjA4OCAxLjM1My4xMzIgMi4zMDMuMTMyIDEuNjY1IDAgMy4wMDItLjU0IDQuMDEyLTEuNjIgMS4wMS0xLjA4IDEuNTE2LTIuNjMgMS41MTYtNC42NTEgMC0uODUyLS4wODktMS42NTktLjI2OC0yLjQyNC0uMTc4LS43NjMtLjQ2Ni0xLjQyNy0uODYyLTEuOTlhNC4zMTcgNC4zMTcgMCAwMC0xLjU2LTEuMzU0Yy0uNjQ0LS4zMzYtMS40NC0uNTA1LTIuMzkxLS41MDUtLjQ1OCAwLS44OTIuMDQ0LTEuMzA5LjEzMmE3LjUyOSA3LjUyOSAwIDAwLTEuMTYuMzQzQTYuNDMgNi40MyAwIDAwNTguNTUgNjl6bTI2LjQ3NSAxLjI3OGEzNi4wNDggMzYuMDQ4IDAgMDEtMi4zMTguNTM0Yy0uOTcuMTk3LTIuMTU5LjI5Ny0zLjU2Ni4yOTctMS4xNSAwLTIuMTEtLjE2OC0yLjg4Mi0uNTA1LS43NzQtLjMzNi0xLjM5Ni0uODEyLTEuODczLTEuNDI4LS40NzUtLjYxMy0uODE4LTEuMzU3LTEuMDI0LTIuMjI4LS4yMDktLjg3Mi0uMzEyLTEuODM0LS4zMTItMi44ODR2LTguNjJoMS45M3Y3Ljk5NmMwIDEuMDkuMDggMi4wMTEuMjM4IDIuNzY0LjE1Ny43NTMuNDE3IDEuMzY0Ljc3MyAxLjgyOC4zNTYuNDY1LjgxOC44MDIgMS4zODIgMS4wMS41NjQuMjEgMS4yNTEuMzEzIDIuMDY1LjMxMy45MSAwIDEuNzAyLS4wNDkgMi4zNzgtLjE0OC42NzMtLjEgMS4wOTktLjE4OSAxLjI3Ny0uMjY4VjY2LjIwNWgxLjkzdjE0LjgzNGguMDAyem00LjI2LTE0LjI5OGEzNi44ODggMzYuODg4IDAgMDEyLjMxNy0uNTM1Yy45NzEtLjE5OCAyLjE2LS4yOTcgMy41NjctLjI5NyAxLjE2OSAwIDIuMTQzLjE2OCAyLjkyOC41MDUuNzgyLjMzNiAxLjQwNS44MTcgMS44NzIgMS40NDEuNDY1LjYyNS43OTcgMS4zNzQuOTk1IDIuMjQ1LjE5OC44NzIuMjk3IDEuODMzLjI5NyAyLjg4M3Y4LjU5SDk5LjMzdi03Ljk2NmMwLTEuMDktLjA3NC0yLjAxMi0uMjI0LTIuNzY2LS4xNDgtLjc1My0uMzk2LTEuMzY3LS43NDMtMS44NDJhMi44OSAyLjg5IDAgMDAtMS4zNjYtMS4wMjdjLS41NjUtLjIwNy0xLjI3Mi0uMzEyLTIuMTI2LS4zMTItLjkxIDAtMS42OTkuMDUtMi4zNjIuMTQ4LS42NjQuMS0xLjA5NS4xOS0xLjI5Mi4yNjl2MTMuNDk1aC0xLjkzMVY2Ni43NHptMTcuOTItLjUzNmg2LjEyM3YxLjYzNGgtNi4xMjJ2OC4xNzVjMCAuODczLjA3NCAxLjU4LjIyNCAyLjEyNi4xNDguNTQ2LjM2Ljk2Ny42MzkgMS4yNjQuMjc2LjI5Ny42MTMuNDk1IDEuMDEuNTk0LjM5Ny4xLjgzMS4xNDkgMS4zMDcuMTQ5LjgxMiAwIDEuNDY1LS4wOTQgMS45NjItLjI4MmE4LjYwMiA4LjYwMiAwIDAwMS4xNTktLjUyMWwuNDc2IDEuNjA1Yy0uMjc4LjE3OC0uNzYzLjM4Mi0xLjQ1Ni42MWE3LjE5MyA3LjE5MyAwIDAxLTIuMjU5LjM0MmMtLjk1MSAwLTEuNzQ5LS4xMjQtMi4zOTItLjM3My0uNjQ0LS4yNDctMS4xNTktLjYyNC0xLjU0NC0xLjEyOS0uMzg3LS41MDQtLjY2LTEuMTMzLS44MTgtMS44ODYtLjE1OS0uNzU0LS4yMzctMS42NDYtLjIzNy0yLjY3NlY2MS42ODZsMS45My0uMzU2djQuODc2ek0xMjggODEuMDRhMzUuOTc2IDM1Ljk3NiAwIDAxLTIuMzE4LjUzNGMtLjk3LjE5Ny0yLjE1OS4yOTctMy41NjYuMjk3LTEuMTUgMC0yLjExLS4xNjgtMi44ODItLjUwNS0uNzcyLS4zMzYtMS4zOTYtLjgxMi0xLjg3Mi0xLjQyOC0uNDc1LS42MTMtLjgxNy0xLjM1Ny0xLjAyNS0yLjIyOC0uMjA4LS44NzItLjMxMi0xLjgzNC0uMzEyLTIuODg0di04LjYyaDEuOTN2Ny45OTZjMCAxLjA5LjA4IDIuMDExLjIzOCAyLjc2NC4xNTkuNzUzLjQxNyAxLjM2NC43NzMgMS44MjhhMy4wMzIgMy4wMzIgMCAwMDEuMzgyIDEuMDFjLjU2NS4yMSAxLjI1Mi4zMTMgMi4wNjUuMzEzLjkxIDAgMS43MDMtLjA0OSAyLjM3OC0uMTQ4LjY3NC0uMSAxLjEtLjE4OSAxLjI3Ny0uMjY4VjY2LjIwNWgxLjkzMXYxNC44MzRIMTI4eiIvPjxwYXRoIGQ9Ik0yOS43MTQgNDAuNkgwdjQ2LjhoMjkuNzE0eiIgZmlsbD0iI2U5NTQyMCIvPjxwYXRoIGQ9Ik02Ljc5NCA3My42MmEzLjA3NyAzLjA3NyAwIDEwLS4wMDItNi4xNTMgMy4wNzcgMy4wNzcgMCAwMC4wMDIgNi4xNTN6bTEyLjgxMi02Ljc0OGEzLjA3NyAzLjA3NyAwIDEwLS4wMDItNi4xNTMgMy4wNzcgMy4wNzcgMCAwMDAgNi4xNTN6bS01Ljg3NCAxMS41OTJhNy40ODggNy40ODggMCAwMS01LjEwOC0zLjg5OCA0LjQyNiA0LjQyNiAwIDAxLTIuNjMuMzIzIDEwLjAxNiAxMC4wMTYgMCAwMDcuMjEgNi4wNDUgMTAuMTA0IDEwLjEwNCAwIDAwMi4xODUuMjI0IDQuNDA1IDQuNDA1IDAgMDEtLjktMi41NzIgNy4zOTkgNy4zOTkgMCAwMS0uNzU2LS4xMjJ6bTUuMTgyIDMuMDk0YTMuMDc3IDMuMDc3IDAgMTAtLjAwMS02LjE1NCAzLjA3NyAzLjA3NyAwIDAwMCA2LjE1NHptNC4yOC00LjIwOGExMC4wODUgMTAuMDg1IDAgMDAxLjk1NC00LjE0NyAxMC4wOTMgMTAuMDkzIDAgMDAtMS40NS03LjY2NiA0LjQzMiA0LjQzMiAwIDAxLTEuNzMgMi4wMjcgNy41MzEgNy41MzEgMCAwMS43MTIgNS4xMSA3LjUyIDcuNTIgMCAwMS0uOTU3IDIuMzg0IDQuNDE4IDQuNDE4IDAgMDExLjQ3MiAyLjI5NHpNNi41NTcgNjYuMTNhNC4zNzUgNC4zNzUgMCAwMTEuMTYzLjA5M2MuNS4xMDguOTczLjI5NyAxLjQwNC41NjdhNy41MDYgNy41MDYgMCAwMTYuMDQtMy4yMzQgNC40NTEgNC40NTEgMCAwMS45MzQtMi40OTVjLTMuODY4LS4zMDctNy42MjggMS42OS05LjU0MyA1LjA3eiIgZmlsbD0iI2ZmZiIvPjwvc3ZnPg==;rounded=1;" vertex="1" parent="1">
          <mxGeometry x="603" y="200" width="54" height="54" as="geometry" />
        </mxCell>
        <mxCell id="iaPaZ1CxlQIq7US97AyM-16" value="" style="shape=image;verticalLabelPosition=bottom;verticalAlign=top;imageAspect=0;aspect=fixed;image=data:image/png,iVBORw0KGgoAAAANSUhEUgAAAEAAAABACAYAAACqaXHeAAAACXBIWXMAAAsTAAALEwEAmpwYAAACJUlEQVR4nO2ZzWrbQBDHf+AQ2kOaPoB76Qd9hOZS+iSx/TR1ci99iFB6awvNJaXyOzTpycYuNCEQp5feFBb+AWFsS1qvHK00PxgQa2Y1H7srzywYhmEYRhkOgFPgH5DWRJwt34E3VMw74H8NHF4lzra3VTnfAc71og/AU+qDs+WjbDuXrcHpZV6wQ/1wNl3IRmdrUDqZyQ81Ntri0k4ytozW/H6fpIvQq6C3ZHklWwzAz4wtyZrfK1kFHeDXQvbrTF+2/g61VfuhJ6yYbMJ6bct+8KT1I8t+0FXQiTT7wZJ3WNUnZUss+3SX4oeUB8TLQD6c+SjfSnmfeNmXD86X0qQNEwtAWVLfyNWMjVdA7DQ2ALvAMfAHmAFHGqs8AKOF8rSKsSIcyb6/Evc8LOFHLqsUl42HHFvXZ8gGaibH9ySXGivqRy4PFYCkYF8gG4AnCsC0hB+5rFJMFgypYqwIw8wWuNTz+xJ+5BLDITjUSpjK+aCH4FyKXeLlmXy48VH+JOWvmig2nM3f5MOJzwQvgasa/IffVJwPz30C8KpBAXixyRb4Euk50NX29d4C87YfgmkEn0GrBbBaAKsFsFoAqwWwWmApVgtgtQBWC2C1AFYL4EFqtQBR3AuMJa28FxgDjySTNt4LjOX8YwWglfcCE4l7tnsBiicyl9u2t8Q+N+hewDV4S/MauK5BW3tTuVaL34uuWsr3HeKYZK7MeztvGIZh0HDuADGKrjrRMWTYAAAAAElFTkSuQmCC;rounded=1;" vertex="1" parent="1">
          <mxGeometry x="250" y="140" width="60" height="60" as="geometry" />
        </mxCell>
        <mxCell id="iaPaZ1CxlQIq7US97AyM-17" value="" style="shape=image;verticalLabelPosition=bottom;verticalAlign=top;imageAspect=0;aspect=fixed;image=data:image/png,iVBORw0KGgoAAAANSUhEUgAAAEAAAABACAYAAACqaXHeAAAACXBIWXMAAAsTAAALEwEAmpwYAAACJUlEQVR4nO2ZzWrbQBDHf+AQ2kOaPoB76Qd9hOZS+iSx/TR1ci99iFB6awvNJaXyOzTpycYuNCEQp5feFBb+AWFsS1qvHK00PxgQa2Y1H7srzywYhmEYRhkOgFPgH5DWRJwt34E3VMw74H8NHF4lzra3VTnfAc71og/AU+qDs+WjbDuXrcHpZV6wQ/1wNl3IRmdrUDqZyQ81Ntri0k4ytozW/H6fpIvQq6C3ZHklWwzAz4wtyZrfK1kFHeDXQvbrTF+2/g61VfuhJ6yYbMJ6bct+8KT1I8t+0FXQiTT7wZJ3WNUnZUss+3SX4oeUB8TLQD6c+SjfSnmfeNmXD86X0qQNEwtAWVLfyNWMjVdA7DQ2ALvAMfAHmAFHGqs8AKOF8rSKsSIcyb6/Evc8LOFHLqsUl42HHFvXZ8gGaibH9ySXGivqRy4PFYCkYF8gG4AnCsC0hB+5rFJMFgypYqwIw8wWuNTz+xJ+5BLDITjUSpjK+aCH4FyKXeLlmXy48VH+JOWvmig2nM3f5MOJzwQvgasa/IffVJwPz30C8KpBAXixyRb4Euk50NX29d4C87YfgmkEn0GrBbBaAKsFsFoAqwWwWmApVgtgtQBWC2C1AFYL4EFqtQBR3AuMJa28FxgDjySTNt4LjOX8YwWglfcCE4l7tnsBiicyl9u2t8Q+N+hewDV4S/MauK5BW3tTuVaL34uuWsr3HeKYZK7MeztvGIZh0HDuADGKrjrRMWTYAAAAAElFTkSuQmCC;rounded=1;" vertex="1" parent="1">
          <mxGeometry x="650" y="20" width="60" height="60" as="geometry" />
        </mxCell>
        <mxCell id="iaPaZ1CxlQIq7US97AyM-18" value="" style="shape=image;verticalLabelPosition=bottom;verticalAlign=top;imageAspect=0;aspect=fixed;image=data:image/png,iVBORw0KGgoAAAANSUhEUgAAAEAAAABACAYAAACqaXHeAAAACXBIWXMAAAsTAAALEwEAmpwYAAACJUlEQVR4nO2ZzWrbQBDHf+AQ2kOaPoB76Qd9hOZS+iSx/TR1ci99iFB6awvNJaXyOzTpycYuNCEQp5feFBb+AWFsS1qvHK00PxgQa2Y1H7srzywYhmEYRhkOgFPgH5DWRJwt34E3VMw74H8NHF4lzra3VTnfAc71og/AU+qDs+WjbDuXrcHpZV6wQ/1wNl3IRmdrUDqZyQ81Ntri0k4ytozW/H6fpIvQq6C3ZHklWwzAz4wtyZrfK1kFHeDXQvbrTF+2/g61VfuhJ6yYbMJ6bct+8KT1I8t+0FXQiTT7wZJ3WNUnZUss+3SX4oeUB8TLQD6c+SjfSnmfeNmXD86X0qQNEwtAWVLfyNWMjVdA7DQ2ALvAMfAHmAFHGqs8AKOF8rSKsSIcyb6/Evc8LOFHLqsUl42HHFvXZ8gGaibH9ySXGivqRy4PFYCkYF8gG4AnCsC0hB+5rFJMFgypYqwIw8wWuNTz+xJ+5BLDITjUSpjK+aCH4FyKXeLlmXy48VH+JOWvmig2nM3f5MOJzwQvgasa/IffVJwPz30C8KpBAXixyRb4Euk50NX29d4C87YfgmkEn0GrBbBaAKsFsFoAqwWwWmApVgtgtQBWC2C1AFYL4EFqtQBR3AuMJa28FxgDjySTNt4LjOX8YwWglfcCE4l7tnsBiicyl9u2t8Q+N+hewDV4S/MauK5BW3tTuVaL34uuWsr3HeKYZK7MeztvGIZh0HDuADGKrjrRMWTYAAAAAElFTkSuQmCC;rounded=1;" vertex="1" parent="1">
          <mxGeometry x="650" y="260" width="60" height="60" as="geometry" />
        </mxCell>
        <mxCell id="iaPaZ1CxlQIq7US97AyM-21" value="" style="shape=image;verticalLabelPosition=bottom;verticalAlign=top;imageAspect=0;aspect=fixed;image=data:image/svg+xml,PHN2ZyB4bWxucz0iaHR0cDovL3d3dy53My5vcmcvMjAwMC9zdmciIHZpZXdCb3g9IjAgMCAxMjggMTI4Ij48cGF0aCBkPSJNNDQuNjYyIDgyLjAyYy0xLjM2NyAwLTIuNTMxLS4yMDgtMy40OS0uNjI0LS45NjItLjQxNy0xLjc0LS45OS0yLjMzNC0xLjcyNWE2LjkgNi45IDAgMDEtMS4yOTItMi41NzIgMTEuOTc1IDExLjk3NSAwIDAxLS40LTMuMTY2di0xMi45NmgyLjAydjEyLjY5NGMwIDEuMTI5LjEzMyAyLjEwNi40MDIgMi45MjkuMjY3LjgyMi42MzggMS41IDEuMTE0IDIuMDM1YTQuMzQ5IDQuMzQ5IDAgMDAxLjcyNCAxLjE5Yy42NzQuMjU3IDEuNDI3LjM4NiAyLjI1OC4zODYuODMyIDAgMS41ODUtLjEzIDIuMjU5LS4zODdhNC4zNTggNC4zNTggMCAwMDEuNzIzLTEuMTg4Yy40NzctLjUzNS44NDgtMS4yMTQgMS4xMTYtMi4wMzYuMjY3LS44MjMuNC0xLjc5OS40LTIuOTNWNjAuOTc0aDIuMDIydjEyLjk2YzAgMS4xMy0uMTMzIDIuMTg2LS40MDIgMy4xNjYtLjI2Ny45ODEtLjY5OCAxLjgzOS0xLjI5MiAyLjU3Mi0uNTk0LjczNC0xLjM3MSAxLjMwOS0yLjMzMiAxLjcyNS0uOTYxLjQxNy0yLjEyNS42MjQtMy40OS42MjR6TTU4LjU1IDY3LjEyOGMuMzM4LS4yNTguODc2LS41MyAxLjYyLS44MTguNzQ0LS4yODcgMS42Mi0uNDMgMi42My0uNDMgMS4xMDkgMCAyLjA5NS4xOTcgMi45NTcuNTkzYTYuMTQgNi4xNCAwIDAxMi4xODMgMS42NjZjLjU5NC43MTMgMS4wNDUgMS41NiAxLjM1MiAyLjU0LjMwNi45ODEuNDYxIDIuMDU2LjQ2MSAzLjIyNiAwIDEuMjQ4LS4xODMgMi4zNjctLjU1IDMuMzU4LS4zNjcuOTkxLS44ODEgMS44MzQtMS41NDUgMi41MjdhNi42NDQgNi42NDQgMCAwMS0yLjM3OCAxLjU5Yy0uOTIxLjM2Ni0xLjk0Ni41NS0zLjA3NS41NS0xLjM2OCAwLTIuNDk3LS4wOS0zLjM4OC0uMjY4LS44OS0uMTc3LTEuNjI0LS4zNjctMi4xOTgtLjU2NVY1OC44NmwxLjkzLS4zNTZ2OC42MmwuMDAyLjAwM3ptMCAxMi42MzRjLjI5OC4wOTkuNzM5LjE5MyAxLjMyMy4yODIuNTg0LjA4OCAxLjM1My4xMzIgMi4zMDMuMTMyIDEuNjY1IDAgMy4wMDItLjU0IDQuMDEyLTEuNjIgMS4wMS0xLjA4IDEuNTE2LTIuNjMgMS41MTYtNC42NTEgMC0uODUyLS4wODktMS42NTktLjI2OC0yLjQyNC0uMTc4LS43NjMtLjQ2Ni0xLjQyNy0uODYyLTEuOTlhNC4zMTcgNC4zMTcgMCAwMC0xLjU2LTEuMzU0Yy0uNjQ0LS4zMzYtMS40NC0uNTA1LTIuMzkxLS41MDUtLjQ1OCAwLS44OTIuMDQ0LTEuMzA5LjEzMmE3LjUyOSA3LjUyOSAwIDAwLTEuMTYuMzQzQTYuNDMgNi40MyAwIDAwNTguNTUgNjl6bTI2LjQ3NSAxLjI3OGEzNi4wNDggMzYuMDQ4IDAgMDEtMi4zMTguNTM0Yy0uOTcuMTk3LTIuMTU5LjI5Ny0zLjU2Ni4yOTctMS4xNSAwLTIuMTEtLjE2OC0yLjg4Mi0uNTA1LS43NzQtLjMzNi0xLjM5Ni0uODEyLTEuODczLTEuNDI4LS40NzUtLjYxMy0uODE4LTEuMzU3LTEuMDI0LTIuMjI4LS4yMDktLjg3Mi0uMzEyLTEuODM0LS4zMTItMi44ODR2LTguNjJoMS45M3Y3Ljk5NmMwIDEuMDkuMDggMi4wMTEuMjM4IDIuNzY0LjE1Ny43NTMuNDE3IDEuMzY0Ljc3MyAxLjgyOC4zNTYuNDY1LjgxOC44MDIgMS4zODIgMS4wMS41NjQuMjEgMS4yNTEuMzEzIDIuMDY1LjMxMy45MSAwIDEuNzAyLS4wNDkgMi4zNzgtLjE0OC42NzMtLjEgMS4wOTktLjE4OSAxLjI3Ny0uMjY4VjY2LjIwNWgxLjkzdjE0LjgzNGguMDAyem00LjI2LTE0LjI5OGEzNi44ODggMzYuODg4IDAgMDEyLjMxNy0uNTM1Yy45NzEtLjE5OCAyLjE2LS4yOTcgMy41NjctLjI5NyAxLjE2OSAwIDIuMTQzLjE2OCAyLjkyOC41MDUuNzgyLjMzNiAxLjQwNS44MTcgMS44NzIgMS40NDEuNDY1LjYyNS43OTcgMS4zNzQuOTk1IDIuMjQ1LjE5OC44NzIuMjk3IDEuODMzLjI5NyAyLjg4M3Y4LjU5SDk5LjMzdi03Ljk2NmMwLTEuMDktLjA3NC0yLjAxMi0uMjI0LTIuNzY2LS4xNDgtLjc1My0uMzk2LTEuMzY3LS43NDMtMS44NDJhMi44OSAyLjg5IDAgMDAtMS4zNjYtMS4wMjdjLS41NjUtLjIwNy0xLjI3Mi0uMzEyLTIuMTI2LS4zMTItLjkxIDAtMS42OTkuMDUtMi4zNjIuMTQ4LS42NjQuMS0xLjA5NS4xOS0xLjI5Mi4yNjl2MTMuNDk1aC0xLjkzMVY2Ni43NHptMTcuOTItLjUzNmg2LjEyM3YxLjYzNGgtNi4xMjJ2OC4xNzVjMCAuODczLjA3NCAxLjU4LjIyNCAyLjEyNi4xNDguNTQ2LjM2Ljk2Ny42MzkgMS4yNjQuMjc2LjI5Ny42MTMuNDk1IDEuMDEuNTk0LjM5Ny4xLjgzMS4xNDkgMS4zMDcuMTQ5LjgxMiAwIDEuNDY1LS4wOTQgMS45NjItLjI4MmE4LjYwMiA4LjYwMiAwIDAwMS4xNTktLjUyMWwuNDc2IDEuNjA1Yy0uMjc4LjE3OC0uNzYzLjM4Mi0xLjQ1Ni42MWE3LjE5MyA3LjE5MyAwIDAxLTIuMjU5LjM0MmMtLjk1MSAwLTEuNzQ5LS4xMjQtMi4zOTItLjM3My0uNjQ0LS4yNDctMS4xNTktLjYyNC0xLjU0NC0xLjEyOS0uMzg3LS41MDQtLjY2LTEuMTMzLS44MTgtMS44ODYtLjE1OS0uNzU0LS4yMzctMS42NDYtLjIzNy0yLjY3NlY2MS42ODZsMS45My0uMzU2djQuODc2ek0xMjggODEuMDRhMzUuOTc2IDM1Ljk3NiAwIDAxLTIuMzE4LjUzNGMtLjk3LjE5Ny0yLjE1OS4yOTctMy41NjYuMjk3LTEuMTUgMC0yLjExLS4xNjgtMi44ODItLjUwNS0uNzcyLS4zMzYtMS4zOTYtLjgxMi0xLjg3Mi0xLjQyOC0uNDc1LS42MTMtLjgxNy0xLjM1Ny0xLjAyNS0yLjIyOC0uMjA4LS44NzItLjMxMi0xLjgzNC0uMzEyLTIuODg0di04LjYyaDEuOTN2Ny45OTZjMCAxLjA5LjA4IDIuMDExLjIzOCAyLjc2NC4xNTkuNzUzLjQxNyAxLjM2NC43NzMgMS44MjhhMy4wMzIgMy4wMzIgMCAwMDEuMzgyIDEuMDFjLjU2NS4yMSAxLjI1Mi4zMTMgMi4wNjUuMzEzLjkxIDAgMS43MDMtLjA0OSAyLjM3OC0uMTQ4LjY3NC0uMSAxLjEtLjE4OSAxLjI3Ny0uMjY4VjY2LjIwNWgxLjkzMXYxNC44MzRIMTI4eiIvPjxwYXRoIGQ9Ik0yOS43MTQgNDAuNkgwdjQ2LjhoMjkuNzE0eiIgZmlsbD0iI2U5NTQyMCIvPjxwYXRoIGQ9Ik02Ljc5NCA3My42MmEzLjA3NyAzLjA3NyAwIDEwLS4wMDItNi4xNTMgMy4wNzcgMy4wNzcgMCAwMC4wMDIgNi4xNTN6bTEyLjgxMi02Ljc0OGEzLjA3NyAzLjA3NyAwIDEwLS4wMDItNi4xNTMgMy4wNzcgMy4wNzcgMCAwMDAgNi4xNTN6bS01Ljg3NCAxMS41OTJhNy40ODggNy40ODggMCAwMS01LjEwOC0zLjg5OCA0LjQyNiA0LjQyNiAwIDAxLTIuNjMuMzIzIDEwLjAxNiAxMC4wMTYgMCAwMDcuMjEgNi4wNDUgMTAuMTA0IDEwLjEwNCAwIDAwMi4xODUuMjI0IDQuNDA1IDQuNDA1IDAgMDEtLjktMi41NzIgNy4zOTkgNy4zOTkgMCAwMS0uNzU2LS4xMjJ6bTUuMTgyIDMuMDk0YTMuMDc3IDMuMDc3IDAgMTAtLjAwMS02LjE1NCAzLjA3NyAzLjA3NyAwIDAwMCA2LjE1NHptNC4yOC00LjIwOGExMC4wODUgMTAuMDg1IDAgMDAxLjk1NC00LjE0NyAxMC4wOTMgMTAuMDkzIDAgMDAtMS40NS03LjY2NiA0LjQzMiA0LjQzMiAwIDAxLTEuNzMgMi4wMjcgNy41MzEgNy41MzEgMCAwMS43MTIgNS4xMSA3LjUyIDcuNTIgMCAwMS0uOTU3IDIuMzg0IDQuNDE4IDQuNDE4IDAgMDExLjQ3MiAyLjI5NHpNNi41NTcgNjYuMTNhNC4zNzUgNC4zNzUgMCAwMTEuMTYzLjA5M2MuNS4xMDguOTczLjI5NyAxLjQwNC41NjdhNy41MDYgNy41MDYgMCAwMTYuMDQtMy4yMzQgNC40NTEgNC40NTEgMCAwMS45MzQtMi40OTVjLTMuODY4LS4zMDctNy42MjggMS42OS05LjU0MyA1LjA3eiIgZmlsbD0iI2ZmZiIvPjwvc3ZnPg==;rounded=1;" vertex="1" parent="1">
          <mxGeometry x="210" y="70" width="60" height="60" as="geometry" />
        </mxCell>
        <mxCell id="iaPaZ1CxlQIq7US97AyM-22" value="" style="shape=waypoint;sketch=0;fillStyle=solid;size=6;pointerEvents=1;points=[];fillColor=none;resizable=0;rotatable=0;perimeter=centerPerimeter;snapToPoint=1;rounded=1;" vertex="1" parent="1">
          <mxGeometry x="310" y="130" width="20" height="20" as="geometry" />
        </mxCell>
        <mxCell id="iaPaZ1CxlQIq7US97AyM-23" value="" style="shape=waypoint;sketch=0;fillStyle=solid;size=6;pointerEvents=1;points=[];fillColor=none;resizable=0;rotatable=0;perimeter=centerPerimeter;snapToPoint=1;rounded=1;" vertex="1" parent="1">
          <mxGeometry x="590" y="20" width="20" height="20" as="geometry" />
        </mxCell>
        <mxCell id="iaPaZ1CxlQIq7US97AyM-24" value="" style="shape=waypoint;sketch=0;fillStyle=solid;size=6;pointerEvents=1;points=[];fillColor=none;resizable=0;rotatable=0;perimeter=centerPerimeter;snapToPoint=1;rounded=1;" vertex="1" parent="1">
          <mxGeometry x="590" y="260" width="20" height="20" as="geometry" />
        </mxCell>
        <mxCell id="iaPaZ1CxlQIq7US97AyM-29" value="" style="endArrow=none;html=1;rounded=1;entryX=0.28;entryY=0.53;entryDx=0;entryDy=0;entryPerimeter=0;strokeColor=default;" edge="1" parent="1" target="iaPaZ1CxlQIq7US97AyM-23">
          <mxGeometry width="50" height="50" relative="1" as="geometry">
            <mxPoint x="320" y="140" as="sourcePoint" />
            <mxPoint x="370" y="90" as="targetPoint" />
          </mxGeometry>
        </mxCell>
        <mxCell id="iaPaZ1CxlQIq7US97AyM-30" value="" style="endArrow=none;html=1;rounded=1;entryX=0.28;entryY=0.53;entryDx=0;entryDy=0;entryPerimeter=0;" edge="1" parent="1">
          <mxGeometry width="50" height="50" relative="1" as="geometry">
            <mxPoint x="320" y="140" as="sourcePoint" />
            <mxPoint x="600" y="270" as="targetPoint" />
          </mxGeometry>
        </mxCell>
        <mxCell id="iaPaZ1CxlQIq7US97AyM-36" value="" style="rounded=0;whiteSpace=wrap;html=1;hachureGap=4;fontFamily=Architects Daughter;fontSource=https%3A%2F%2Ffonts.googleapis.com%2Fcss%3Ffamily%3DArchitects%2BDaughter;fillColor=none;" vertex="1" parent="1">
          <mxGeometry x="190" y="-120" width="540" height="480" as="geometry" />
        </mxCell>
        <mxCell id="iaPaZ1CxlQIq7US97AyM-34" value="&lt;b&gt;&lt;i&gt;&lt;font style=&quot;font-size: 18px;&quot;&gt;SSH&lt;/font&gt;&lt;/i&gt;&lt;/b&gt;" style="text;html=1;align=center;verticalAlign=middle;resizable=0;points=[];autosize=1;strokeColor=none;fillColor=none;fontFamily=Architects Daughter;fontSource=https%3A%2F%2Ffonts.googleapis.com%2Fcss%3Ffamily%3DArchitects%2BDaughter;" vertex="1" parent="1">
          <mxGeometry x="470" y="70" width="60" height="40" as="geometry" />
        </mxCell>
        <mxCell id="iaPaZ1CxlQIq7US97AyM-35" value="&lt;b&gt;&lt;i&gt;&lt;font style=&quot;font-size: 18px;&quot;&gt;SSH&lt;/font&gt;&lt;/i&gt;&lt;/b&gt;" style="text;html=1;align=center;verticalAlign=middle;resizable=0;points=[];autosize=1;strokeColor=none;fillColor=none;fontFamily=Architects Daughter;fontSource=https%3A%2F%2Ffonts.googleapis.com%2Fcss%3Ffamily%3DArchitects%2BDaughter;" vertex="1" parent="1">
          <mxGeometry x="470" y="230" width="60" height="40" as="geometry" />
        </mxCell>
        <mxCell id="iaPaZ1CxlQIq7US97AyM-37" value="&lt;b&gt;&lt;font style=&quot;font-size: 16px;&quot;&gt;Contrl Node&lt;/font&gt;&lt;/b&gt;" style="text;html=1;align=center;verticalAlign=middle;resizable=0;points=[];autosize=1;strokeColor=none;fillColor=none;fontFamily=Architects Daughter;fontSource=https%3A%2F%2Ffonts.googleapis.com%2Fcss%3Ffamily%3DArchitects%2BDaughter;" vertex="1" parent="1">
          <mxGeometry x="210" y="210" width="110" height="30" as="geometry" />
        </mxCell>
        <mxCell id="iaPaZ1CxlQIq7US97AyM-38" value="&lt;b style=&quot;font-family: Helvetica;&quot;&gt;Worker Node 01&lt;/b&gt;" style="text;html=1;align=center;verticalAlign=middle;resizable=0;points=[];autosize=1;strokeColor=none;fillColor=none;fontFamily=Architects Daughter;fontSource=https%3A%2F%2Ffonts.googleapis.com%2Fcss%3Ffamily%3DArchitects%2BDaughter;" vertex="1" parent="1">
          <mxGeometry x="610" y="80" width="110" height="30" as="geometry" />
        </mxCell>
        <mxCell id="iaPaZ1CxlQIq7US97AyM-40" value="&lt;b style=&quot;font-family: Helvetica;&quot;&gt;Worker Node 02&lt;/b&gt;" style="text;html=1;align=center;verticalAlign=middle;resizable=0;points=[];autosize=1;strokeColor=none;fillColor=none;fontFamily=Architects Daughter;fontSource=https%3A%2F%2Ffonts.googleapis.com%2Fcss%3Ffamily%3DArchitects%2BDaughter;" vertex="1" parent="1">
          <mxGeometry x="605" y="330" width="110" height="30" as="geometry" />
        </mxCell>
      </root>
    </mxGraphModel>
  </diagram>
</mxfile>
